<svg xmlns="http://www.w3.org/2000/svg" viewBox="0 0 239.92 48.35"><defs><style>.cls-1{fill:#c6a351;}.cls-2{fill:#c5a251;}</style></defs><title>coffee-title_1</title><g id="Layer_2" data-name="Layer 2"><g id="Layer_1-2" data-name="Layer 1"><path class="cls-1" d="M54.43,17.94a5.48,5.48,0,0,1,5.46,5.45.24.24,0,0,0,.25.25.24.24,0,0,0,.26-.25,5.48,5.48,0,0,1,5.45-5.45.24.24,0,0,0,.18-.06.3.3,0,0,0,.07-.2.32.32,0,0,0-.07-.2.29.29,0,0,0-.17-.06h0A5.48,5.48,0,0,1,60.4,12a.23.23,0,0,0-.26-.24.23.23,0,0,0-.25.24,5.48,5.48,0,0,1-5.46,5.45.24.24,0,0,0-.24.26.24.24,0,0,0,.24.26"/><path class="cls-1" d="M118.12,5.91a5.23,5.23,0,0,1,5.19,5.2.22.22,0,0,0,.24.23.23.23,0,0,0,.25-.23A5.23,5.23,0,0,1,129,5.91a.22.22,0,0,0,.17,0,.33.33,0,0,0,0-.38.26.26,0,0,0-.16-.06h0A5.22,5.22,0,0,1,123.8.23a.23.23,0,0,0-.25-.23.22.22,0,0,0-.24.23,5.22,5.22,0,0,1-5.19,5.19.23.23,0,0,0-.23.25.22.22,0,0,0,.23.24"/><path class="cls-1" d="M132,15a6,6,0,0,1,6,6,.28.28,0,0,0,.56,0,6,6,0,0,1,6-6,.22.22,0,0,0,.19-.07.3.3,0,0,0,.08-.21.31.31,0,0,0-.08-.22.21.21,0,0,0-.18-.07h0a6,6,0,0,1-6-6,.26.26,0,0,0-.28-.26.25.25,0,0,0-.28.26,6,6,0,0,1-6,6,.27.27,0,0,0-.26.29A.26.26,0,0,0,132,15"/><path class="cls-1" d="M189.19,14.94a5.48,5.48,0,0,1,5.46,5.45.24.24,0,0,0,.25.25.24.24,0,0,0,.26-.25,5.48,5.48,0,0,1,5.45-5.45.24.24,0,0,0,.18-.06.3.3,0,0,0,.07-.2.32.32,0,0,0-.07-.2.29.29,0,0,0-.17-.06h0A5.48,5.48,0,0,1,195.16,9a.23.23,0,0,0-.26-.24.23.23,0,0,0-.25.24,5.48,5.48,0,0,1-5.46,5.45.24.24,0,0,0-.24.26.24.24,0,0,0,.24.26"/><path d="M7.36,44.81,4.68,47.44,0,47.27v-16l2.74-2.62v16C4.28,44.71,5.82,44.77,7.36,44.81Zm0-13.1,1,0A2.75,2.75,0,0,1,11,34.48a2.54,2.54,0,0,1-2.66,2.58h0a2.88,2.88,0,0,0-1-2.05ZM14,38.45c-3,3.81-4.51,4.36-6.67,4.29V40.08l1.74.06A6.43,6.43,0,0,0,14,38.45Z"/><path d="M26.79,45.26l5.1.07c-.89.9-1.79,1.79-2.69,2.68l-5.09-.08L23.21,46l-2,1.89-4.56-.1-.06-16,2.72-2.66v16l4.59.08V40.48h.59ZM23.91,31.8l1.07,0a2.92,2.92,0,0,1,2.68,3A2.8,2.8,0,0,1,25,37.79a3.48,3.48,0,0,0-1.07-2.63Zm6.69,7-1.23,1.33a3.59,3.59,0,0,0-.17-.34A5.37,5.37,0,0,0,30.6,38.82Z"/><path d="M45,46.32a6.65,6.65,0,0,1-4.78,2C36,48.32,33,44.17,33,40a8.86,8.86,0,0,1,2.44-6.16l2.46-2.44a8.72,8.72,0,0,0-2.21,5.91c0,4.6,3.25,8.3,7.25,8.31a6.75,6.75,0,0,0,4.82-2.08Zm-2.1-14.7c1.26,0,2.27,2.64,2.27,5.83s-1,5.82-2.27,5.81a1.26,1.26,0,0,1-.81-.36,13.44,13.44,0,0,0,.37-2.75c0-1.68-.2-4.09-1.6-5.38C41.13,33.48,41.8,31.61,42.92,31.62Z"/><path d="M58.07,48.14H53.45V34.71H49.9c.14-.86.29-1.72.44-2.57.91-.91,1.81-1.82,2.72-2.72L52.61,32h3.56V45.43l4.62,0Zm3.59-13.46h-.87V32l3.58,0Z"/><path d="M76.24,46.17a6.78,6.78,0,0,1-4.78,2.1c-4.26,0-7.26-4.06-7.26-8.2a9,9,0,0,1,2.44-6.21l2.46-2.48a8.87,8.87,0,0,0-2.21,5.95c0,4.59,3.25,8.24,7.25,8.19A6.84,6.84,0,0,0,79,43.37ZM74.14,31.5c1.26,0,2.27,2.6,2.27,5.8s-1,5.83-2.27,5.84a1.18,1.18,0,0,1-.81-.35A13.47,13.47,0,0,0,73.69,40c0-1.68-.19-4.08-1.59-5.36C72.35,33.39,73,31.51,74.14,31.5Z"/><path d="M89.29,47.82l-4.62.06V34.44l-3.56.05.45-2.58,2.72-2.75-.45,2.58,3.56,0V45.13L92,45.06Zm3.58-13.5H92V31.62l3.58-.06Z"/><path d="M105.67,47.54l-4.62.08V40.4l-4.26-8.72,2.72-2.76,4.26,8.71v7.23l4.62-.09Zm4.59-18.82c-1,1.87-2,3.73-3,5.6l-.62-1.25.9-1.58Z"/><path d="M121.52,44.52l-2.69,2.77-4.68.09v-16l2.75-2.76v16Zm0-13.1,1,0A2.6,2.6,0,0,1,125.19,34a2.7,2.7,0,0,1-2.66,2.71h0a2.76,2.76,0,0,0-1-2Zm6.66,6.43c-3,3.94-4.51,4.56-6.66,4.6V39.79l1.73,0A6.73,6.73,0,0,0,128.18,37.85Z"/><path d="M140.67,46.89c-3.29,0-6.59.11-9.88.18V31c.9-.91,1.81-1.82,2.71-2.74v16l9.89-.17Zm-2.55-13.4V30.78l4.68-.08-2.72,2.76Zm.39,6.72h-.39V37.5l3.11-.06Z"/><path d="M158.56,46.86a6.91,6.91,0,0,1-5.94-3.44,9.06,9.06,0,0,1-1.31-4.71,8.88,8.88,0,0,1,2.46-6.23c.93-.93,1.85-1.87,2.78-2.81a8.85,8.85,0,0,0-2.5,6.25c0,4.57,3.25,8.22,7.23,8.17,2.8,0,4.39-.84,5.4-1.83L164,45A7.56,7.56,0,0,1,158.56,46.86ZM162,30.05A3.69,3.69,0,0,1,165.48,32l-2.72,2.75a1.54,1.54,0,0,0-.14-.22,3.78,3.78,0,0,0-3.11-1.79A3.26,3.26,0,0,1,162,30.05Zm3.13,9.54a3,3,0,0,1-1.59,1.56Z"/><path d="M179.31,44.6a6.77,6.77,0,0,1-4.79,2.07c-4.25,0-7.25-4.05-7.25-8.19a9,9,0,0,1,2.44-6.21l2.46-2.49A8.83,8.83,0,0,0,170,35.73c0,4.6,3.25,8.23,7.25,8.21A6.8,6.8,0,0,0,182,41.82Zm-2.1-14.69c1.26,0,2.27,2.62,2.27,5.82s-1,5.82-2.27,5.83a1.17,1.17,0,0,1-.81-.36,14.2,14.2,0,0,0,.36-2.74c0-1.68-.2-4.09-1.59-5.37C175.42,31.8,176.09,29.92,177.21,29.91Z"/><path d="M190.2,46.4h-4.62v-16l2.72-2.69v16h4.62ZM192.92,33V30.25h4.67L194.88,33Zm.39,6.72h-.39V37H196Z"/><path d="M203.5,46.46l-4.62,0v-16l2.72-2.67v16l4.62,0Zm2.72-13.41V30.33l4.67.06-2.71,2.68Zm.39,6.72h-.39V37.05l3.11,0Z"/><path d="M222.35,46.76c-3.3-.08-6.59-.14-9.89-.19v-16l2.72-2.65v16c3.29.06,6.59.12,9.88.21Zm-2.55-13.5V30.55l4.67.1-2.71,2.66Zm.39,6.73h-.39V37.27l3.11.07Z"/><path d="M236.65,47.17c-3.29-.11-6.59-.21-9.88-.3v-16l2.72-2.61v16c3.29.09,6.59.2,9.88.33Zm-2.54-13.52V30.93l4.67.17-2.71,2.61Zm.39,6.73h-.39V37.65l3.1.11Z"/><path class="cls-2" d="M9.37,28.87c4.09.11,6.22,2.62,6.22,5.9,0,2-1.54,5.51-6.53,5.37l-1.73,0v4.73l-4.62-.14v-16Zm-1,2.88-1,0V37l1,0A2.55,2.55,0,0,0,11,34.48,2.75,2.75,0,0,0,8.33,31.75Z"/><path class="cls-2" d="M29.17,39.8l2.68,5.52-5.09-.07c-.76-1.58-1.51-3.17-2.27-4.76H23.9v4.73l-4.59-.09v-16l6.66.12c4.09.06,6.19,2.6,6.19,5.88A5.34,5.34,0,0,1,29.17,39.8Zm-5.3-2,1.07,0a2.8,2.8,0,0,0,2.69-2.93,2.92,2.92,0,0,0-2.69-3H23.87Z"/><path class="cls-2" d="M50.11,37.4c0,4.57-3.25,8.26-7.22,8.24s-7.26-3.75-7.26-8.31,3.25-8.23,7.26-8.21S50.11,32.84,50.11,37.4Zm-5,.05c0-3.19-1-5.83-2.26-5.84s-2.3,2.62-2.3,5.81,1,5.83,2.3,5.84S45.15,40.67,45.15,37.45Z"/><path class="cls-2" d="M64.33,32l-3.58,0V45.43H56.13V32H52.57L53,29.43l10.87,0Z"/><path class="cls-2" d="M81.33,37.24c0,4.56-3.25,8.29-7.22,8.33s-7.26-3.65-7.26-8.21,3.25-8.28,7.26-8.31S81.33,32.67,81.33,37.24Zm-5,.1c0-3.19-1-5.81-2.26-5.8s-2.3,2.65-2.3,5.84,1,5.82,2.3,5.81S76.37,40.56,76.37,37.34Z"/><path class="cls-2" d="M95.55,31.65,92,31.7V45.14l-4.62.06V31.76l-3.56,0,.45-2.58,10.87-.14Z"/><path class="cls-2" d="M112.94,28.8l-4.59,9v7.14l-4.62.08V37.74L99.47,29l5-.08c.91,1.83,1.81,3.66,2.72,5.5l3-5.59Z"/><path class="cls-2" d="M123.53,28.63c4.08-.07,6.21,2.36,6.21,5.63,0,2-1.54,5.57-6.52,5.65l-1.74,0v4.74l-4.62.07v-16Zm-1,2.93h-1v5.32h1a2.71,2.71,0,0,0,2.66-2.71A2.6,2.6,0,0,0,122.49,31.56Z"/><path class="cls-2" d="M143.94,41.71c-.2.87-.39,1.74-.59,2.61l-9.88.16v-16l8.84-.14.45,2.57-4.67.07v4.12l3.1,0v2.61l-3.1,0V41.8Z"/><path class="cls-2" d="M167.2,41.81c-1.31,1.89-3.58,2.47-6,2.5-4,0-7.22-3.61-7.22-8.17s3.24-8.28,7.22-8.32a7.24,7.24,0,0,1,6,2.35l-1.76,2c-1-2.18-6.33-4.22-6.33,3.88,0,7.44,5.13,6,6,3.74Z"/><path class="cls-2" d="M184.4,35.89c0,4.56-3.25,8.26-7.23,8.29s-7.25-3.65-7.25-8.21,3.25-8.29,7.25-8.31S184.4,31.32,184.4,35.89Zm-5,.07c0-3.19-1-5.82-2.27-5.81s-2.29,2.64-2.29,5.84,1,5.81,2.29,5.81S179.44,39.18,179.44,36Z"/><path class="cls-2" d="M188.26,43.92v-16h8.85l.45,2.58h-4.68v4.11H196v2.6h-3.11v6.72Z"/><path class="cls-2" d="M201.56,44v-16c2.95,0,5.9,0,8.85.07l.45,2.59-4.68-.05v4.11l3.11,0V37.3l-3.11,0V44Z"/><path class="cls-2" d="M225.61,41.68c-.19.86-.39,1.73-.59,2.59q-4.94-.1-9.88-.18v-16l8.85.15.45,2.59c-1.56,0-3.12-.07-4.68-.09v4.11l3.11.06v2.61c-1,0-2.07,0-3.11-.06v4.11Z"/><path class="cls-2" d="M239.92,42.07c-.2.87-.39,1.73-.59,2.59-3.29-.11-6.59-.2-9.88-.29v-16c3,.07,5.9.16,8.85.25.15.86.3,1.73.44,2.59l-4.67-.14v4.11l3.11.1v2.6l-3.11-.09v4.11Z"/></g></g></svg>