<svg version="1.1" id="Layer_1" xmlns="http://www.w3.org/2000/svg" xmlns:xlink="http://www.w3.org/1999/xlink" x="0px" y="0px"
	 width="100%" viewBox="0 0 1008 912" enable-background="new 0 0 1008 912" xml:space="preserve">
<path fill="#000000" opacity="1.000000" stroke="none" 
	d="
M707.560791,258.523621 
	C726.141174,255.386368 744.496582,257.000183 762.770935,256.808411 
	C773.566589,256.695099 784.395325,256.539185 795.217468,257.503174 
	C815.385986,259.299744 835.555969,260.882629 855.660950,263.473969 
	C871.965820,265.575500 888.237000,267.877655 904.309204,271.158234 
	C921.914429,274.751648 937.287537,283.428680 950.848083,295.125000 
	C962.102661,304.832397 972.546143,315.420227 980.684814,327.915497 
	C989.263672,341.086456 991.346558,355.641724 987.781311,370.923492 
	C978.294983,411.585083 951.636047,435.909210 913.262512,449.051910 
	C898.293213,454.178772 882.980835,458.257721 867.384766,460.495941 
	C852.789429,462.590485 838.067871,464.004578 823.227661,464.448883 
	C788.950623,465.475006 754.680237,467.045807 720.390503,466.107117 
	C704.290955,465.666382 688.398865,462.912964 672.606995,459.481537 
	C653.488953,455.327393 634.940552,449.651825 617.793945,440.210022 
	C597.023132,428.772614 584.262451,410.787048 577.605774,388.303741 
	C571.551147,367.853699 577.640625,349.664673 588.362610,332.389893 
	C605.953247,304.048523 629.018616,281.906097 660.320862,269.257629 
	C675.330383,263.192688 690.870422,259.129059 707.560791,258.523621 
M961.944031,370.320068 
	C964.103943,364.131653 962.745605,358.049469 960.772217,352.239655 
	C954.940979,335.072052 942.655762,322.856964 928.290039,312.859833 
	C906.724243,297.852173 881.681030,294.414215 856.224182,293.154846 
	C848.140198,292.754913 843.698120,297.322754 845.580444,305.131927 
	C848.494568,317.221405 846.129395,329.083954 844.779236,340.829315 
	C842.755615,358.433167 836.884094,375.304779 832.366150,392.422699 
	C830.081787,401.077789 828.335693,409.881104 828.122559,418.898560 
	C828.032166,422.725525 829.743347,424.843262 833.712646,424.972992 
	C842.231079,425.251373 850.654480,424.766510 858.919678,422.433411 
	C876.294006,417.529083 893.594421,412.317749 911.105286,407.955688 
	C926.106323,404.218811 939.552917,397.920288 951.100647,387.625244 
	C956.176880,383.099640 959.910950,377.716400 961.944031,370.320068 
M642.908630,313.446564 
	C623.369141,326.216949 611.123657,344.332336 604.206177,366.332703 
	C600.909668,376.816772 603.557617,385.812622 611.637756,393.019684 
	C617.224609,398.002930 623.198853,402.560364 629.832825,406.157379 
	C636.481750,409.762573 640.276062,407.614990 641.741943,400.144012 
	C643.378296,391.803558 642.911316,383.318970 644.557190,374.925537 
	C647.319824,360.837036 650.785645,347.083771 657.468384,334.347748 
	C662.488159,324.781067 667.888123,315.408264 673.331787,306.073364 
	C674.805603,303.546082 674.256958,301.745422 672.697144,299.758148 
	C671.002869,297.599457 669.185547,298.574463 667.348083,299.464294 
	C659.097778,303.459991 651.013733,307.747711 642.908630,313.446564 
z"/>
<path fill="#000000" opacity="1.000000" stroke="none" 
	d="
M268.595215,251.984467 
	C278.531769,254.529144 288.341980,255.174576 297.961517,256.939972 
	C312.799316,259.662994 327.633514,262.405823 342.463837,265.169159 
	C355.992065,267.689911 369.505920,270.288239 383.038971,272.782532 
	C405.328705,276.890717 426.848450,282.549988 443.650238,299.353943 
	C461.089233,316.795166 470.829315,336.663269 466.578766,362.149628 
	C461.329590,393.623718 443.661285,414.983337 414.882843,427.548676 
	C391.381897,437.809784 367.049042,445.430969 341.864105,450.585815 
	C320.095734,455.041443 298.214691,457.901794 276.046082,456.993896 
	C257.479645,456.233521 238.915909,455.258911 220.425262,452.714783 
	C204.136215,450.473602 187.813370,448.497498 171.716934,445.160156 
	C148.679321,440.383698 125.251144,436.724457 103.595589,427.030029 
	C79.867302,416.407776 64.722031,397.489960 54.877560,373.876831 
	C48.508316,358.599396 46.521645,343.213531 52.766876,327.373932 
	C56.116512,318.878326 61.395992,311.653564 67.213501,304.762970 
	C88.346451,279.732025 113.965630,261.244202 145.745010,252.323944 
	C158.201172,248.827591 171.000076,246.583176 184.108643,246.670929 
	C203.578979,246.801270 223.060959,246.321686 242.447357,248.753281 
	C251.014633,249.827835 259.499329,251.570465 268.595215,251.984467 
M410.102417,402.609100 
	C411.518005,401.735687 412.972534,400.919098 414.342957,399.979767 
	C424.688110,392.889008 432.591522,383.822845 435.617981,371.426270 
	C439.856903,354.063232 433.491669,339.685730 421.770142,327.302643 
	C398.213593,302.416626 367.206543,294.986023 334.904419,291.045685 
	C328.168793,290.224030 325.856476,293.893402 326.546692,301.223022 
	C327.511780,311.471832 329.378113,321.586517 330.750366,331.748260 
	C332.594727,345.405640 331.402252,359.335297 328.721863,372.946655 
	C326.035004,386.590820 322.925995,400.151550 320.035583,413.755981 
	C318.610565,420.463257 320.747284,423.162201 327.570526,423.043030 
	C338.045410,422.860046 348.399902,421.684937 358.776215,420.052765 
	C376.710144,417.231781 393.648468,411.876678 410.102417,402.609100 
M91.323982,322.818085 
	C87.709900,326.957153 83.922295,330.959015 80.518059,335.264008 
	C73.547119,344.079346 73.655228,353.884277 80.536217,362.768829 
	C81.963531,364.611725 83.409325,366.443604 84.759315,368.342621 
	C99.122162,388.546661 115.509682,405.972626 141.131104,411.697845 
	C148.354263,413.311859 150.143570,412.837250 149.610184,405.294525 
	C148.566849,390.540619 147.711975,375.945282 149.391006,361.061920 
	C151.143814,345.524506 153.678650,330.254913 157.592834,315.169189 
	C160.291748,304.767334 163.488434,294.467621 164.003967,283.896912 
	C162.748016,282.674103 161.576904,282.588654 160.412170,282.790924 
	C149.234665,284.732239 138.409363,287.627777 128.253204,292.978546 
	C114.155922,300.405701 102.999413,311.343872 91.323982,322.818085 
z"/>
<path fill="#000000" opacity="1.000000" stroke="none" 
	d="
M701.941650,724.406006 
	C702.361023,741.651306 698.917175,757.539307 690.470337,772.181396 
	C687.865845,776.696167 684.442749,780.449951 680.134888,783.538818 
	C657.923157,799.464844 635.556580,815.146362 611.053406,827.442078 
	C594.825073,835.585388 578.047852,842.007385 560.083679,845.631531 
	C542.070618,849.265564 524.212158,848.974121 506.073730,847.594482 
	C496.473328,846.864319 486.836853,846.379517 477.282135,845.203125 
	C467.423706,843.989380 457.568970,842.733948 447.802429,840.732056 
	C440.011200,839.135071 432.250793,837.463806 424.521240,835.595276 
	C402.665497,830.311890 381.552917,822.896240 361.170166,813.451843 
	C327.562317,797.879517 296.626404,778.124146 268.967194,753.430542 
	C252.363541,738.607239 238.518311,721.449402 225.719101,703.206360 
	C214.888046,687.768494 226.840637,667.427124 241.918106,663.824219 
	C250.828842,661.695007 259.327667,662.939697 267.851501,665.679260 
	C291.721741,673.351257 313.728943,684.491455 332.573029,701.184998 
	C344.966797,712.164490 357.920624,722.192932 372.555939,730.057556 
	C394.258118,741.719910 417.469666,746.034363 441.853149,744.974060 
	C455.805847,744.367310 469.768463,743.823303 483.694305,742.807983 
	C499.110168,741.684021 514.524780,740.356384 529.872498,738.545715 
	C541.388367,737.187195 552.815979,735.030029 564.249207,733.035583 
	C576.492493,730.899963 588.718750,728.633911 600.739319,725.426270 
	C613.979980,721.892944 626.062744,715.520264 638.548096,710.094727 
	C650.100525,705.074585 661.708496,699.808167 674.801819,700.058167 
	C682.637939,700.207825 689.415283,703.116760 695.474976,707.792664 
	C700.736572,711.852661 701.437500,717.892944 701.941650,724.406006 
M675.259949,716.226807 
	C674.906616,716.745605 674.141357,717.578918 674.261536,717.736206 
	C676.177551,720.245850 678.981873,721.158752 681.949707,721.518677 
	C682.747864,721.615479 683.626099,720.595093 683.280029,719.787537 
	C682.156189,717.164795 679.934509,715.836731 677.170410,715.436951 
	C676.736023,715.374146 676.242554,715.720032 675.259949,716.226807 
z"/>
<path fill="#000000" opacity="1.000000" stroke="none" 
	d="
M526.128052,506.052155 
	C529.841187,512.881104 531.514526,519.948608 532.803589,527.178772 
	C540.632080,571.087646 529.358215,608.450439 494.992706,637.924988 
	C491.470001,640.946350 488.147064,644.227966 483.937592,646.397888 
	C470.175507,653.491821 456.715515,650.173767 448.409912,637.097778 
	C441.163574,625.689392 437.671844,613.023743 436.738647,599.530396 
	C434.695068,569.981384 442.575989,543.645569 461.913147,521.049622 
	C471.705139,509.607452 483.530853,500.743378 497.983215,496.067780 
	C510.708862,491.950836 518.271240,494.830505 526.128052,506.052155 
z"/>
</svg>